PathFileType	4	(X/Y/Z)	c:/Users/goper/Files/vsCode/490R/osim_files/C12/C12_SSWS_06.trc
DataRate	CameraRate	NumFrames	NumMarkers	Units                	OrigDataRate	OrigDataStartFrame	OrigNumFrames
120.00	120.00	4	36	mm	120.0	617	1233
                Frame#	Time	LPSIS			LASIS			LTH1			LTH2			LTH3			LTH4			LLFE			LMFE			LSH1			LSH2			LSH3			LSH4			LLMAL			LMMAL			LCAL			LMTP5			LTOE			LMTP1			RPSIS			RASIS			RTH1			RTH2			RTH3			RTH4			RLFE			RMFE			RSH1			RSH2			RSH3			RSH4			RLMAL			RMMAL			RCAL			RMTP1			RTOE			RMTP5		
		X1	Y1	Z1	X2	Y2	Z2	X3	Y3	Z3	X4	Y4	Z4	X5	Y5	Z5	X6	Y6	Z6	X7	Y7	Z7	X8	Y8	Z8	X9	Y9	Z9	X10	Y10	Z10	X11	Y11	Z11	X12	Y12	Z12	X13	Y13	Z13	X14	Y14	Z14	X15	Y15	Z15	X16	Y16	Z16	X17	Y17	Z17	X18	Y18	Z18	X19	Y19	Z19	X20	Y20	Z20	X21	Y21	Z21	X22	Y22	Z22	X23	Y23	Z23	X24	Y24	Z24	X25	Y25	Z25	X26	Y26	Z26	X27	Y27	Z27	X28	Y28	Z28	X29	Y29	Z29	X30	Y30	Z30	X31	Y31	Z31	X32	Y32	Z32	X33	Y33	Z33	X34	Y34	Z34	X35	Y35	Z35	X36	Y36	Z36

617	5.13333	89.62051	1035.47351	381.64844	-89.75492	995.76941	412.23932	-74.15224	717.91772	462.90317	-90.81142	677.40649	457.23395	-132.81972	738.91510	459.58777	-142.72630	696.61493	453.75159	-187.08775	529.95026	398.35101	-152.62930	520.83380	278.08569	-155.63118	420.39377	423.97342	-169.37105	374.71487	429.08575	-212.94714	430.80286	406.37094	-217.16232	383.58005	411.44547	-230.37625	93.91720	375.12030	-236.48425	100.19742	292.60400	-163.40887	66.44341	339.90033	-367.46393	44.35285	387.97324	-410.83548	80.93105	316.41632	-378.95410	47.00451	278.11060	105.74404	1036.32593	268.41287	-63.69109	995.36768	159.00008	103.22474	731.77112	124.26155	108.67535	686.90387	130.81332	42.28386	716.25000	120.41456	57.32473	671.10388	125.96102	149.14746	511.79733	157.34167	135.04771	505.61435	289.71713	260.54950	471.76990	147.32082	285.77927	437.23593	141.19080	213.89903	428.18387	145.86705	247.26404	401.68112	139.23613	451.05136	190.64226	191.95998	424.50922	193.48830	270.99631	524.48151	216.12636	236.57710	393.97244	56.64252	297.55801	358.98325	58.35453	268.29401	402.57700	33.98232	192.71355
618	5.14167	77.57968	1038.17761	381.58844	-101.62000	998.07703	412.64041	-86.43183	720.27020	463.87100	-103.17664	679.95343	457.87570	-144.71268	742.34802	459.25079	-155.16623	699.61963	453.94949	-198.42229	531.34509	398.11926	-164.80508	522.84039	277.94412	-164.23473	421.80283	425.26074	-177.07814	375.95221	430.40189	-221.39719	431.19070	407.21506	-224.97301	383.86179	412.30313	-230.89343	94.00603	374.72595	-236.74640	99.98375	292.73868	-163.80016	66.95714	339.87289	-367.68372	43.49742	388.39957	-411.13596	79.79295	316.66577	-379.44528	46.30608	277.89374	93.36008	1038.05017	268.41714	-76.27885	996.91449	160.20117	86.64009	730.76660	123.45987	91.43179	685.75940	129.74742	25.09554	715.64557	119.86157	39.82317	670.79346	125.16155	132.17183	511.84897	154.34270	114.75446	502.96863	286.67859	241.88640	472.80618	144.93703	268.21637	439.28162	139.39157	196.42940	427.92694	142.81815	230.38629	402.48151	136.08624	438.37720	196.74586	189.64613	412.48886	199.01653	268.74472	510.09875	227.47937	233.75095	389.97217	60.77155	296.47394	354.83203	58.54122	267.48239	400.40628	36.59709	192.04175
619	5.15000	65.91360	1041.15308	381.00681	-113.18233	1000.87878	413.31598	-99.05923	722.59052	465.05289	-115.56339	682.27167	458.20706	-156.77628	745.03485	459.40631	-167.69269	702.80023	453.75806	-208.76335	532.90771	398.23557	-177.40829	524.93237	277.17950	-172.22234	423.57809	426.42993	-184.09842	377.37332	431.41568	-229.37071	431.77969	407.92029	-231.95096	384.26987	412.96042	-231.29536	94.23682	374.56915	-236.75685	100.11062	293.55307	-164.03671	67.70389	339.94263	-367.95715	42.80340	388.66855	-411.33554	80.19547	316.89133	-379.93845	45.74361	277.92996	81.45850	1039.91125	268.01828	-88.66384	998.61108	161.55640	69.99039	729.61835	122.35719	73.89171	684.49860	128.57097	8.16019	715.74408	119.26866	21.97206	670.49274	124.11063	112.49431	510.44791	151.73457	93.51913	500.33621	284.31250	221.96365	473.59247	142.46117	249.98584	441.15689	137.01265	178.54155	427.70575	139.76167	212.77892	402.95258	133.35567	425.83859	204.35159	187.07732	399.49643	204.98849	266.35107	494.68634	239.24182	230.61156	385.24893	65.92006	295.03116	349.89325	58.87392	266.41623	397.79880	40.04517	191.23541
620	5.15833	54.20991	1043.97095	380.27463	-124.67830	1003.67694	414.21835	-111.28372	725.20184	466.37946	-127.56899	684.67682	458.67099	-169.05975	748.31073	460.18353	-179.91853	705.99408	453.77759	-218.15277	534.30609	398.74460	-187.99786	527.21918	278.38843	-179.65298	425.49530	427.43741	-190.53723	378.98547	432.22705	-236.93095	432.33035	408.50250	-238.49422	384.79910	413.43954	-231.95290	94.60369	374.67703	-237.07539	100.50558	294.40149	-164.41057	68.45217	340.17227	-368.25342	42.02460	388.92136	-412.25101	78.88403	316.88120	-380.31586	44.89403	277.83987	69.77561	1041.79614	267.25931	-100.63895	1000.34662	162.95163	53.14092	728.49780	121.44796	56.14723	683.23755	127.25469	-8.64775	715.88116	118.24172	3.92587	670.36884	122.90919	92.35748	508.94128	149.28694	71.93740	497.27975	281.56430	202.14444	474.39526	140.16982	230.58739	442.60895	134.76950	159.45084	427.97147	137.11594	195.44408	404.58264	130.96581	411.69101	211.74297	184.80011	385.52933	211.14250	264.29550	478.09174	251.26549	227.09348	379.56909	71.49883	293.58975	344.23544	59.56070	265.16260	394.12869	44.58651	190.35056
